<?xml version="1.0" standalone="no"?>
<!DOCTYPE svg PUBLIC "-//W3C//DTD SVG 20010904//EN"
 "http://www.w3.org/TR/2001/REC-SVG-20010904/DTD/svg10.dtd">
<svg version="1.0" xmlns="http://www.w3.org/2000/svg"
 width="3464.000000pt" height="3464.000000pt" viewBox="0 0 3464.000000 3464.000000"
 preserveAspectRatio="xMidYMid meet">
<metadata>
Created by potrace 1.14, written by Peter Selinger 2001-2017
</metadata>
<g transform="translate(0.000000,3464.000000) scale(0.100000,-0.100000)"
fill="#000000" stroke="none">
<path d="M0 17320 l0 -17320 17320 0 17320 0 0 17320 0 17320 -17320 0 -17320
0 0 -17320z m21190 8580 l0 -3860 -3870 0 -3870 0 0 3860 0 3860 3870 0 3870
0 0 -3860z m8675 0 l0 -3855 -3862 -3 -3863 -2 0 3860 0 3860 3863 -2 3862 -3
0 -3855z m-8675 -8580 l0 -3870 -3870 0 -3870 0 0 3870 0 3870 3870 0 3870 0
0 -3870z m-8540 -60 l0 -3860 -3860 0 -3860 0 0 3860 0 3860 3860 0 3860 0 0
-3860z m8540 -8560 l0 -3860 -3870 0 -3870 0 0 3860 0 3860 3870 0 3870 0 0
-3860z"/>
</g>
</svg>
